HIERARCHY
ROOT Hips
{
	OFFSET 0.000000 0.000000 0.000000
	CHANNELS 6 Xposition Yposition Zposition Zrotation Yrotation Xrotation 
	JOINT LHipJoint
	{
		OFFSET 0.000000 0.000000 0.000000
		CHANNELS 3 Zrotation Yrotation Xrotation
		JOINT LeftUpLeg
		{
			OFFSET 1.363060 -1.794630 0.839290
			CHANNELS 3 Zrotation Yrotation Xrotation
			JOINT LeftLeg
			{
				OFFSET 2.448110 -6.726130 0.000000
				CHANNELS 3 Zrotation Yrotation Xrotation
				JOINT LeftFoot
				{
					OFFSET 2.562200 -7.039590 0.000000
					CHANNELS 3 Zrotation Yrotation Xrotation
					JOINT LeftToeBase
					{
						OFFSET 0.157640 -0.433110 2.322550
						CHANNELS 3 Zrotation Yrotation Xrotation
						End Site
						{
							OFFSET 0.000000 0.000000 0.000000
						}
					}
				}
			}
		}
	}
	JOINT RHipJoint
	{
		OFFSET 0.000000 0.000000 0.000000
		CHANNELS 3 Zrotation Yrotation Xrotation
		JOINT RightUpLeg
		{
			OFFSET -1.305520 -1.794630 0.839290
			CHANNELS 3 Zrotation Yrotation Xrotation
			JOINT RightLeg
			{
				OFFSET -2.542530 -6.985550 0.000000
				CHANNELS 3 Zrotation Yrotation Xrotation
				JOINT RightFoot
				{
					OFFSET -2.568260 -7.056230 0.000000
					CHANNELS 3 Zrotation Yrotation Xrotation
					JOINT RightToeBase
					{
						OFFSET -0.164730 -0.452590 2.363150
						CHANNELS 3 Zrotation Yrotation Xrotation
						End Site
						{
							OFFSET 0.000000 0.000000 0.000000
						}
					}
				}
			}
		}
	}
	JOINT LowerBack
	{
		OFFSET 0.000000 0.000000 0.000000
		CHANNELS 3 Zrotation Yrotation Xrotation
		JOINT Spine
		{
			OFFSET 0.028270 2.035590 -0.193380
			CHANNELS 3 Zrotation Yrotation Xrotation
			JOINT Spine1
			{
				OFFSET 0.056720 2.048850 -0.042750
				CHANNELS 3 Zrotation Yrotation Xrotation
				JOINT Neck
				{
					OFFSET 0.000000 0.000000 0.000000
					CHANNELS 3 Zrotation Yrotation Xrotation
					JOINT Neck1
					{
						OFFSET -0.054170 1.746240 0.172020
						CHANNELS 3 Zrotation Yrotation Xrotation
						JOINT Head
						{
							OFFSET 0.104070 1.761360 -0.123970
							CHANNELS 3 Zrotation Yrotation Xrotation
							End Site
							{
								OFFSET 0.000000 0.000000 0.000000
							}
						}
					}
				}
				JOINT LeftShoulder
				{
					OFFSET 0.000000 0.000000 0.000000
					CHANNELS 3 Zrotation Yrotation Xrotation
					JOINT LeftArm
					{
						OFFSET 3.362410 1.200890 -0.311210
						CHANNELS 3 Zrotation Yrotation Xrotation
						JOINT LeftForeArm
						{
							OFFSET 4.983000 -0.000000 -0.000000
							CHANNELS 3 Zrotation Yrotation Xrotation
							JOINT LeftHand
							{
								OFFSET 3.483560 -0.000000 -0.000000
								CHANNELS 3 Zrotation Yrotation Xrotation
								JOINT LeftFingerBase
								{
									OFFSET 0.000000 0.000000 0.000000
									CHANNELS 3 Zrotation Yrotation Xrotation
									JOINT LeftHandIndex1
									{
										OFFSET 0.715260 -0.000000 -0.000000
										CHANNELS 3 Zrotation Yrotation Xrotation
										End Site
										{
											OFFSET 0.000000 0.000000 0.000000
										}
									}
								}
								JOINT LThumb
								{
									OFFSET 0.000000 0.000000 0.000000
									CHANNELS 3 Zrotation Yrotation Xrotation
									End Site
									{
										OFFSET 0.000000 0.000000 0.000000
									}
								}
							}
						}
					}
				}
				JOINT RightShoulder
				{
					OFFSET 0.000000 0.000000 0.000000
					CHANNELS 3 Zrotation Yrotation Xrotation
					JOINT RightArm
					{
						OFFSET -3.136600 1.374050 -0.404650
						CHANNELS 3 Zrotation Yrotation Xrotation
						JOINT RightForeArm
						{
							OFFSET -5.241900 -0.000000 -0.000000
							CHANNELS 3 Zrotation Yrotation Xrotation
							JOINT RightHand
							{
								OFFSET -3.444170 -0.000000 -0.000000
								CHANNELS 3 Zrotation Yrotation Xrotation
								JOINT RightFingerBase
								{
									OFFSET 0.000000 0.000000 0.000000
									CHANNELS 3 Zrotation Yrotation Xrotation
									JOINT RightHandIndex1
									{
										OFFSET -0.622530 -0.000000 -0.000000
										CHANNELS 3 Zrotation Yrotation Xrotation
										End Site
										{
											OFFSET 0.000000 0.000000 0.000000
										}
									}
								}
								JOINT RThumb
								{
									OFFSET 0.000000 0.000000 0.000000
									CHANNELS 3 Zrotation Yrotation Xrotation
									End Site
									{
										OFFSET 0.000000 0.000000 0.000000
									}
								}
							}
						}
					}
				}
			}
		}
	}
}
MOTION
Frames: 6
Frame Time: 0.008333
0.527210 17.814429 -13.984045 -2.405779 -2.017491 5.847019 -1.479004 0.244108 1.115667 -14.033204 2.831280 -12.861314 -0.437090 5.618954 15.600053 -0.529818 4.233119 -0.679262 0.000000 0.038000 0.104500 -0.599409 -0.516614 0.037051 19.968768 1.802648 -11.330121 -0.124276 -6.224795 17.704001 -0.275077 0.083425 -3.868954 -0.335500 -3.722200 10.296400 1.755155 -0.298173 -3.441347 1.436249 -0.533696 -2.234813 0.782184 -0.585628 7.726524 -3.692330 -0.922393 -10.788324 3.295540 -0.592272 30.666087 0.755400 0.182300 12.016600 9.169363 5.816116 0.449525 -97.571009 -3.104319 26.415963 6.034661 -14.354363 -0.693553 -0.158114 -0.734969 -1.601764 24.978492 -3.796110 -1.401100 -7.125000 0.000000 0.000000 -1.100500 26.682700 0.489200 -8.298211 -4.856078 0.055814 94.324905 2.328120 10.492492 -9.212622 20.767612 -1.924116 0.715540 0.963775 31.517125 -21.131862 -23.723380 9.326300 7.125000 0.000000 0.000000 9.112700 -56.312700 -2.542900 
0.527109 17.814429 -13.986073 -2.412657 -2.020225 5.863721 -1.479242 0.241820 1.114093 -14.027315 2.831194 -12.894456 -0.436439 5.622931 15.609526 -0.529910 4.233819 -0.676993 0.000000 0.035700 0.098100 -0.599547 -0.514898 0.037125 19.977054 1.805442 -11.358303 -0.124568 -6.227127 17.709050 -0.274928 0.083118 -3.862420 -0.333400 -3.710800 10.264400 1.752706 -0.291748 -3.435974 1.437398 -0.525166 -2.238269 0.790345 -0.581988 7.713240 -3.680249 -0.917890 -10.803792 3.307003 -0.591524 30.684634 0.757700 0.185800 12.031500 9.170736 5.814777 0.447041 -97.552399 -3.116873 26.421829 6.037452 -14.360089 -0.693839 -0.159204 -0.734660 -1.584353 25.012926 -3.835617 -1.421800 -7.125000 0.000000 0.000000 -1.073900 26.638100 0.478500 -8.296374 -4.854256 0.054909 94.327295 2.328676 10.474679 -9.204176 20.752170 -1.920654 0.718139 0.961353 31.585081 -21.175113 -23.675783 9.331100 7.125000 0.000000 0.000000 9.043500 -56.273000 -2.514600 
0.526196 17.814835 -13.988303 -2.407630 -1.996698 5.869089 -1.479791 0.240520 1.113963 -14.027883 2.840556 -12.915702 -0.437108 5.621844 15.606471 -0.523452 4.203650 -0.651762 0.000000 0.015300 0.042000 -0.599587 -0.513982 0.037458 19.976520 1.820262 -11.370562 -0.125066 -6.229309 17.713736 -0.269194 0.047891 -3.864532 -0.331700 -3.701200 10.237500 1.731288 -0.294680 -3.416351 1.439208 -0.527590 -2.242694 0.811148 -0.584826 7.687059 -3.700327 -0.914435 -10.782693 3.320108 -0.587449 30.679287 0.767200 0.186800 12.025300 9.171541 5.811234 0.446234 -97.532812 -3.124521 26.448869 6.044840 -14.375480 -0.697713 -0.156140 -0.734212 -1.582715 24.942652 -3.733496 -1.369900 -7.125000 0.000000 0.000000 -1.129200 26.751500 0.500100 -8.296291 -4.852309 0.054359 94.318383 2.315173 10.511453 -9.211524 20.762419 -1.923664 0.717164 0.961358 31.557375 -21.151280 -23.655503 9.312600 7.125000 0.000000 0.000000 9.059500 -56.246500 -2.513300 
0.526095 17.814835 -13.989114 -2.403966 -1.996465 5.870359 -1.479585 0.240137 1.113037 -14.030206 2.822434 -12.913349 -0.437420 5.622085 15.606365 -0.526198 4.216657 -0.653154 0.000000 0.022300 0.061100 -0.599106 -0.513450 0.037214 19.970368 1.822497 -11.375987 -0.125577 -6.231153 17.718686 -0.270298 0.053800 -3.868999 -0.334800 -3.718400 10.285600 1.727089 -0.288611 -3.424486 1.436220 -0.519085 -2.241204 0.802582 -0.580678 7.697937 -3.668742 -0.918727 -10.811199 3.309230 -0.595055 30.717047 0.756100 0.186600 12.050400 9.171634 5.812596 0.443804 -97.492293 -3.138768 26.491521 6.052582 -14.391074 -0.699284 -0.157677 -0.734219 -1.617989 24.979553 -3.811058 -1.408500 -7.125000 0.000000 0.000000 -1.100100 26.665300 0.489500 -8.295063 -4.851506 0.054807 94.332695 2.329791 10.472331 -9.190471 20.727649 -1.913851 0.721998 0.959821 31.662871 -21.252136 -23.679294 9.370400 7.125000 0.000000 0.000000 8.961600 -56.294400 -2.496200 
0.525791 17.814936 -13.990534 -2.403571 -1.992333 5.875342 -1.479712 0.239348 1.112543 -14.029085 2.820267 -12.923998 -0.437708 5.621931 15.605457 -0.525400 4.213171 -0.645698 -0.000000 0.019700 0.054200 -0.598923 -0.512735 0.037250 19.970830 1.827214 -11.386351 -0.125708 -6.232168 17.720714 -0.269202 0.046643 -3.869279 -0.333700 -3.712500 10.269300 1.719237 -0.284846 -3.421144 1.435762 -0.513585 -2.242690 0.807387 -0.578445 7.690503 -3.666017 -0.919990 -10.810490 3.316412 -0.600168 30.731567 0.758100 0.185600 12.057600 9.171913 5.811217 0.442197 -97.462268 -3.152390 26.517233 6.056456 -14.399168 -0.700128 -0.158682 -0.733878 -1.633534 24.997456 -3.862930 -1.434200 -7.125000 0.000000 0.000000 -1.085900 26.607200 0.484600 -8.294399 -4.850337 0.054989 94.335792 2.329158 10.467624 -9.180758 20.710812 -1.908995 0.725356 0.958353 31.726218 -21.323022 -23.677764 9.404800 7.125000 0.000000 0.000000 8.883900 -56.309000 -2.477500 
0.525385 17.815038 -13.991953 -2.403416 -1.989047 5.879078 -1.479756 0.238740 1.112190 -14.027794 2.819769 -12.933077 -0.438019 5.621586 15.604030 -0.524768 4.210071 -0.638199 0.000000 0.014600 0.040200 -0.598725 -0.512131 0.037284 19.971638 1.830635 -11.395274 -0.125865 -6.233073 17.722728 -0.268232 0.040917 -3.869489 -0.332400 -3.705100 10.248500 1.712323 -0.280774 -3.417696 1.435065 -0.507650 -2.244026 0.811136 -0.575775 7.682781 -3.667150 -0.922569 -10.804310 3.326548 -0.607796 30.743761 0.761800 0.183300 12.061900 9.171952 5.809476 0.440676 -97.430275 -3.168106 26.541399 6.060005 -14.406300 -0.700658 -0.160200 -0.733535 -1.654765 25.028570 -3.935704 -1.470600 -7.125000 0.000000 0.000000 -1.061400 26.525800 0.475700 -8.294088 -4.849236 0.055403 94.339480 2.327578 10.464462 -9.171952 20.695550 -1.904356 0.728648 0.957080 31.785547 -21.394580 -23.683785 9.442200 7.125000 0.000000 0.000000 8.809000 -56.331600 -2.461200 
